# xmcd CD database file generated by Grip 2.94
# 
# Track frame offsets:
#       150
#       18773
#       31962
#       50815
#       68150
#       83172
#       94372
# 
# Disc length: 1548 seconds
# 
# Revision: 3
# Processed by: cddbd v1.4PL0 Copyright (c) Steve Scherf et al.
# Submitted via: Grip 2.94
# 
DISCID=54060a07
DTITLE=Various Artist - Nitty Gritty Dirt Band - Will The Circle Be Unbroken Vol. III The Sampler
DYEAR=1900
DGENRE=
TTITLE0=Catfish John - Alison Krauss
TTITLE1=Hold Whatcha Got - Jimmy Martin
TTITLE2=Roll The Stone Away - Jeff Hanna and Marcus Hummon
TTITLE3=The Lowlands - Jaime Hanna and Jonathan McEuen
TTITLE4=Some Dark Holler - Dwight Yoakam
TTITLE5=Sallie Ann - Earl Scruggs
TTITLE6=Will The Circle Be Unbroken - Taj Mahal, Alison Krauss, and Doc Watson
EXTD=
EXTT0=
EXTT1=
EXTT2=
EXTT3=
EXTT4=
EXTT5=
EXTT6=
PLAYORDER=
